<svg width="49" height="49" viewBox="0 0 49 49" fill="none" xmlns="http://www.w3.org/2000/svg">
<g clip-path="url(#clip0_1201_4248)">
<path d="M46.8214 25.4282C46.8214 37.4404 37.0836 47.1782 25.0714 47.1782C13.0592 47.1782 3.32141 37.4404 3.32141 25.4282C3.32141 13.416 13.0592 3.67822 25.0714 3.67822C37.0836 3.67822 46.8214 13.416 46.8214 25.4282Z" fill="white" stroke="#0C8188" stroke-width="1.5"/>
<path d="M29.1317 16.7993L14.3136 21.342V23.9998V26.6575L29.1317 31.2002" stroke="#323232" stroke-width="1.4" stroke-linecap="round" stroke-linejoin="round"/>
<path d="M29.132 16.4144C29.132 15.9097 29.5397 15.499 30.0409 15.499C30.5421 15.499 30.9499 15.9097 30.9499 16.4144V31.5853C30.9499 32.09 30.5421 32.5007 30.0409 32.5007C29.5397 32.5007 29.132 32.09 29.132 31.5853" stroke="#323232" stroke-width="1.4" stroke-linecap="round" stroke-linejoin="round"/>
<path d="M34.9991 24.3423H40.0027" stroke="#0C8188" stroke-width="1.4" stroke-linecap="round" stroke-linejoin="round"/>
<path d="M34.2589 20.8689L37.7957 17.3071" stroke="#0C8188" stroke-width="1.4" stroke-linecap="round" stroke-linejoin="round"/>
<path d="M34.2589 27.6387L37.7957 31.2004" stroke="#0C8188" stroke-width="1.4" stroke-linecap="round" stroke-linejoin="round"/>
<path d="M10.5909 27.1279V32.5005H13.1762V27.1279" stroke="#323232" stroke-width="1.4" stroke-linecap="round" stroke-linejoin="round"/>
<path d="M17.3214 23.9939V23.6383L24.883 22.0498C24.3034 23.2654 24.2031 24.6119 24.6003 25.8826L17.3214 24.3537V23.998V23.9939Z" fill="#0C8188" stroke="#0C8188" stroke-width="1.5"/>
<path d="M10.4041 26.8374H13.3631C13.9042 26.8374 14.3429 26.3957 14.3429 25.8507V21.8555C14.3429 21.3106 13.9042 20.8689 13.3631 20.8689H10.4041C9.86296 20.8689 9.4243 21.3106 9.4243 21.8555V25.8507C9.4243 26.3957 9.86296 26.8374 10.4041 26.8374Z" stroke="#323232" stroke-width="1.4" stroke-linecap="round" stroke-linejoin="round"/>
</g>
<defs>
<clipPath id="clip0_1201_4248">
<rect width="49" height="49" fill="white"/>
</clipPath>
</defs>
</svg>
