<svg width="64" height="64" viewBox="0 0 64 64" fill="none" xmlns="http://www.w3.org/2000/svg">
<g clip-path="url(#clip0_730_1127)">
<path d="M32 64C49.6731 64 64 49.6731 64 32C64 14.3269 49.6731 0 32 0C14.3269 0 0 14.3269 0 32C0 49.6731 14.3269 64 32 64Z" fill="#EFF8FA"/>
<path d="M37.1062 15.123H17.8086V49.8315H37.1062V15.123Z" stroke="#323232" stroke-width="1.4" stroke-miterlimit="10"/>
<path d="M48.3635 49.8318H37.1074V24.21L48.3635 30.1531V36.5506V49.8318Z" stroke="#323232" stroke-width="1.4" stroke-miterlimit="10"/>
<path d="M24.7213 26.4023H21.1348V29.988H24.7213V26.4023Z" fill="#FFC524"/>
<path d="M30.4752 26.4023H26.8887V29.988H30.4752V26.4023Z" fill="#0C8188"/>
<path d="M24.7213 19.7075H21.1348V23.2931H24.7213V19.7075Z" fill="#0C8188"/>
<path d="M30.4752 19.7075H26.8887V23.2931H30.4752V19.7075Z" fill="#FFC524"/>
<path d="M42.1347 39.8662H39.334V42.6662H42.1347V39.8662Z" fill="#0C8188"/>
<path d="M46.4198 39.8662H43.6191V42.6662H46.4198V39.8662Z" fill="#0C8188"/>
<path d="M42.1347 35.1997H39.334V37.9997H42.1347V35.1997Z" fill="#0C8188"/>
<path d="M46.4199 35.1997H43.6191V37.9997H46.4199V35.1997Z" fill="#0C8188"/>
<path d="M24.7213 32.5889H21.1348V36.1745H24.7213V32.5889Z" fill="#0C8188"/>
<path d="M30.4752 32.5889H26.8887V36.1745H30.4752V32.5889Z" fill="#FFC524"/>
<path d="M24.7213 38.7773H21.1348V42.363H24.7213V38.7773Z" fill="#0C8188"/>
<path d="M30.4752 38.7773H26.8887V42.363H30.4752V38.7773Z" fill="#0C8188"/>
<path d="M33.7266 46.4875V18.3413L34.6815 16.7334V46.4875H33.7266Z" fill="#0C8188"/>
</g>
<defs>
<clipPath id="clip0_730_1127">
<rect width="64" height="64" fill="white"/>
</clipPath>
</defs>
</svg>
