<svg width="80" height="80" viewBox="0 0 80 80" fill="none" xmlns="http://www.w3.org/2000/svg">
<path d="M40 76C59.8823 76 76 59.8823 76 40C76 20.1178 59.8823 4 40 4C20.1178 4 4 20.1178 4 40C4 59.8823 20.1178 76 40 76Z" fill="#EFF8FA"/>
<path d="M50.1315 59.1862C50.2801 59.3752 50.4993 59.4984 50.7356 59.5266L56.0407 60.7367C56.5357 60.7959 56.9892 60.4392 57.0484 59.9441L57.0649 50.3479C57.1106 49.9654 56.9182 49.6171 56.5968 49.4418C56.4897 49.3833 56.3749 49.3411 56.2511 49.3263L52.2066 48.8374L52.3545 47.5997L52.8084 43.8477C52.8676 43.3526 52.5109 42.8992 52.0158 42.84L47.0999 42.2413L47.6892 37.4043C47.7484 36.9092 47.3917 36.4557 46.8966 36.3965L42.9534 35.9198C43.7236 34.4882 44.8391 32.4587 45.0376 30.8447C45.8948 23.7171 40.8048 17.2201 33.6723 16.3566C26.5447 15.4994 20.0477 20.5894 19.1842 27.7219C18.327 34.8495 23.4169 41.3465 30.5495 42.21C32.4961 42.4426 34.4839 42.2349 36.3288 41.5994L50.1202 59.1849L50.1315 59.1862Z" stroke="#323232" stroke-width="1.8" stroke-miterlimit="10"/>
<path d="M34.2757 27.2192C33.9804 29.6434 31.7698 31.3822 29.3456 31.0869C26.9214 30.7916 25.1826 28.5809 25.4779 26.1568C25.7732 23.7326 27.9839 21.9937 30.4031 22.2828C32.8272 22.5781 34.5661 24.7887 34.2757 27.2192Z" fill="#FFC524"/>
<path d="M40.4155 40.0676C40.1034 39.6708 39.5358 39.5973 39.139 39.9094C38.7422 40.2215 38.6687 40.789 38.9808 41.1858L50.5241 55.952C50.8362 56.3488 51.4037 56.4223 51.8005 56.1102C51.9958 55.9566 52.114 55.7311 52.1409 55.506C52.1741 55.276 52.106 55.0339 51.9524 54.8387L40.4092 40.0725L40.4155 40.0676Z" fill="#0C8188"/>
</svg>
