<svg width="13" height="13" viewBox="0 0 16 16" fill="none" xmlns="http://www.w3.org/2000/svg">
<g clip-path="url(#clip0_879_7846)">
<path d="M11.333 7.3335H4.66634C3.92996 7.3335 3.33301 7.93045 3.33301 8.66683V12.6668C3.33301 13.4032 3.92996 14.0002 4.66634 14.0002H11.333C12.0694 14.0002 12.6663 13.4032 12.6663 12.6668V8.66683C12.6663 7.93045 12.0694 7.3335 11.333 7.3335Z" stroke="#333333" stroke-width="1.3" stroke-linecap="round" stroke-linejoin="round"/>
<path d="M8.00033 12.0002C8.73671 12.0002 9.33366 11.4032 9.33366 10.6668C9.33366 9.93045 8.73671 9.3335 8.00033 9.3335C7.26395 9.3335 6.66699 9.93045 6.66699 10.6668C6.66699 11.4032 7.26395 12.0002 8.00033 12.0002Z" fill="#0C8188"/>
<path d="M5.33301 7.33333V4.66667C5.33301 3.95942 5.61396 3.28115 6.11406 2.78105C6.61415 2.28095 7.29243 2 7.99967 2C8.70692 2 9.3852 2.28095 9.88529 2.78105C10.3854 3.28115 10.6663 3.95942 10.6663 4.66667V7.33333" stroke="#333333" stroke-width="1.3" stroke-linecap="round" stroke-linejoin="round"/>
</g>
<defs>
<clipPath id="clip0_879_7846">
<rect width="16" height="16" fill="white"/>
</clipPath>
</defs>
</svg>
