<svg width="14" height="16" viewBox="0 0 14 16" fill="none" xmlns="http://www.w3.org/2000/svg">
<path d="M0.548816 4.69301C0.379399 4.9756 0.305341 5.30517 0.337573 5.63307C0.369805 5.96097 0.506618 6.26982 0.727816 6.51401C0.727816 6.51401 0.847815 5.99101 2.04982 5.99101H3.49182C3.80477 6.01484 4.11848 5.95574 4.4013 5.81965C4.68413 5.68357 4.92608 5.47532 5.10274 5.2159C5.27941 4.95648 5.38454 4.65506 5.40756 4.34205C5.43057 4.02903 5.37065 3.71548 5.23382 3.43301C5.23382 3.43301 6.19482 3.53301 6.51682 2.94901C6.83882 2.36501 6.49682 2.13501 6.01682 2.13501H3.59181C3.59181 2.55201 2.77082 2.61001 2.77082 2.13501H1.40882C1.40882 2.13501 0.386816 2.13501 0.367816 2.96801C0.509737 2.8872 0.665931 2.83457 0.827815 2.81301V3.03501C0.68687 3.05851 0.549012 3.09776 0.416819 3.15201C0.286819 3.22001 0.09582 3.40401 0.27682 3.87901C0.45782 4.35401 0.52682 4.51801 0.52682 4.51801C0.747855 4.35673 1.01523 4.27147 1.28882 4.27501H1.83982C2.81982 4.27501 2.63982 5.19501 1.65882 5.19501C0.677816 5.19501 0.547816 4.69501 0.547816 4.69501L0.548816 4.69301Z" fill="#0C8188"/>
<path d="M5.66484 3.73503C5.87062 3.7408 6.07215 3.67586 6.23584 3.55103C6.23584 3.55103 8.40884 5.18903 5.18484 8.48203C1.96084 11.775 4.45384 13.908 4.45384 13.908C4.26774 14.1252 4.1457 14.3899 4.10137 14.6724C4.05704 14.955 4.09218 15.2443 4.20284 15.508C3.3077 14.9876 2.50734 14.3192 1.83584 13.531C0.353837 11.731 -0.552164 8.98203 3.51784 6.78803C3.51784 6.78803 6.20384 5.48003 5.66384 3.73603L5.66484 3.73503Z" fill="#0C8188"/>
<path d="M2.34375 1.82607C2.50172 1.59026 2.71654 1.39804 2.96838 1.26713C3.22023 1.13623 3.50098 1.07086 3.78474 1.07707C4.57874 1.07707 4.76075 0.683069 4.76075 0.683069C4.76075 0.683069 5.10675 0.0440693 6.86075 0.0440693C8.15102 0.0105169 9.41091 0.438518 10.4137 1.25107C9.66978 0.852567 8.82077 0.693913 7.9831 0.796854C7.14543 0.899795 6.36009 1.25929 5.73475 1.82607H2.34375Z" fill="#0C8188"/>
<path d="M12.142 6.56698C12.076 4.22898 10.206 1.72298 6.18799 1.86698C10.113 -1.34902 16.922 5.83198 11.314 9.60498C11.9041 8.70599 12.194 7.64307 12.142 6.56898V6.56698Z" fill="#0C8188"/>
<path d="M6.79004 2.12297C11.69 1.98097 13.439 7.66397 10.274 10.223L7.09704 11.709C7.09704 11.709 6.68304 10.417 8.21904 8.90897C9.75504 7.40097 11.236 4.56897 6.99104 2.70897C7.01316 2.6031 7.00626 2.4932 6.97105 2.39093C6.93585 2.28865 6.87365 2.1978 6.79104 2.12797L6.79004 2.12297Z" fill="#0C8188"/>
<path d="M6.53602 3.40195C6.66368 3.2866 6.77205 3.15156 6.85702 3.00195C10.501 4.47395 9.92803 6.96795 7.75103 9.06095C7.37092 9.40218 7.08612 9.83643 6.92465 10.321C6.76317 10.8056 6.73056 11.3239 6.83002 11.825C6.00421 12.3118 5.2643 12.9314 4.64003 13.659C4.64003 13.659 2.28202 11.716 5.54802 8.49395C8.74802 5.32895 6.53602 3.40395 6.53602 3.40395V3.40195Z" fill="#0C8188"/>
</svg>
