<svg width="28" height="18" viewBox="0 0 28 23" fill="none" xmlns="http://www.w3.org/2000/svg">
<path d="M19.188 0.679771L19.1745 0.691202C19.9439 0.681326 20.7075 0.82679 21.4211 1.11888C22.1347 1.41097 22.784 1.84385 23.3314 2.39271C24.5934 2.15522 25.8091 1.71183 26.9314 1.07957C26.4884 2.34717 25.6003 3.40419 24.4373 4.0485C25.5594 3.92153 26.6595 3.64113 27.7076 3.21489C26.9395 4.29414 26.0032 5.23935 24.9356 6.01291C24.9503 6.24487 24.9503 6.47739 24.9356 6.70935C24.9457 8.76466 24.5327 10.7996 23.7231 12.6835C22.9135 14.5673 21.7252 16.2588 20.2343 17.6494C17.0949 20.5732 12.9744 22.1702 8.71425 22.1144C5.64699 22.1243 2.63479 21.2876 0 19.6936C0.46125 19.7164 0.922878 19.7164 1.38488 19.6936C3.9039 19.7021 6.3598 18.8939 8.39476 17.3868C7.24093 17.3872 6.11451 17.0299 5.16632 16.3625C4.21813 15.6951 3.49342 14.7496 3.08925 13.6526C3.44212 13.7078 3.79873 13.7346 4.15575 13.7326C4.67068 13.7235 5.18261 13.6504 5.68014 13.5154C4.43656 13.3157 3.30066 12.6817 2.46844 11.7227C1.63622 10.7637 1.15989 9.53997 1.12164 8.26254V8.19396C1.91871 8.60437 2.79267 8.83804 3.6855 8.87924C2.92373 8.41072 2.2923 7.75256 1.85094 6.96724C1.40958 6.18192 1.17288 5.29521 1.16325 4.39114C1.15771 3.42806 1.42735 2.48414 1.9395 1.67341C3.41588 3.36742 5.21344 4.74198 7.22482 5.71516C9.23619 6.68833 11.4201 7.24011 13.6463 7.33749C13.5531 6.93323 13.5067 6.51925 13.5079 6.10408C13.5061 5.38336 13.6519 4.67026 13.936 4.00974C14.2201 3.34923 14.6363 2.75586 15.1582 2.26725C16.255 1.2392 17.6952 0.671753 19.188 0.679771Z" fill="white"/>
</svg>
