<svg width="25" height="15" viewBox="0 0 27 19" fill="none" xmlns="http://www.w3.org/2000/svg">
<path d="M26.3334 2.9274C26.1841 2.35677 25.8899 1.83602 25.48 1.41715C25.0701 0.99828 24.559 0.696179 23.9979 0.540883C21.9391 0.0155804 13.694 0.015625 13.694 0.015625C13.694 0.015625 5.44774 0.015625 3.39012 0.586606C2.8342 0.737597 2.32654 1.03263 1.91706 1.44308C1.50758 1.85353 1.21036 2.36505 1.05461 2.9274C0.315128 7.21522 0.315128 11.601 1.05461 15.8888C1.20444 16.4541 1.4997 16.969 1.91011 17.3804C2.32051 17.7917 2.8313 18.0849 3.39012 18.2299C5.44774 18.7666 13.694 18.7665 13.694 18.7665C13.694 18.7665 21.9391 18.7666 23.9979 18.207C24.5566 18.0619 25.0674 17.7686 25.4777 17.3572C25.8881 16.9459 26.1834 16.4312 26.3334 15.8659C27.0714 11.5856 27.0714 7.20768 26.3334 2.9274ZM11.0547 13.4108V5.38279L17.9544 9.39108L11.0547 13.4108Z" fill="white"/>
</svg>
