<svg width="1248" height="221" viewBox="0 0 1248 221" fill="none" xmlns="http://www.w3.org/2000/svg">
<circle cx="210.893" cy="110.728" r="40.9659" fill="#2856B6"/>
<circle cx="210.893" cy="110.728" r="38.4056" fill="#F5F4F6"/>
<circle cx="210.893" cy="110.728" r="20.483" fill="#1A88FF"/>
<circle cx="239.057" cy="82.5642" r="10.2415" fill="#6A6A75"/>
<path d="M330.542 113.41C332.023 111.929 332.023 109.527 330.542 108.046L306.402 83.9065C304.921 82.4251 302.519 82.4251 301.038 83.9065C299.557 85.3878 299.557 87.7895 301.038 89.2708L322.495 110.728L301.038 132.185C299.557 133.667 299.557 136.068 301.038 137.55C302.519 139.031 304.921 139.031 306.402 137.55L330.542 113.41ZM283.859 114.521H327.86V106.935H283.859V114.521Z" fill="#2856B6"/>
<circle cx="424.596" cy="82.6587" r="32.3682" fill="#2856B6"/>
<circle cx="424.596" cy="82.6586" r="30.3451" fill="#F5F4F6"/>
<circle cx="424.596" cy="82.6587" r="16.1841" fill="#1A88FF"/>
<circle cx="392.228" cy="138.797" r="32.3682" fill="#2856B6"/>
<circle cx="392.228" cy="138.797" r="30.3451" fill="#F5F4F6"/>
<circle cx="392.228" cy="138.797" r="16.1841" fill="#1A88FF"/>
<circle cx="456.964" cy="138.797" r="32.3682" fill="#2856B6"/>
<circle cx="456.964" cy="138.797" r="30.3451" fill="#F5F4F6"/>
<circle cx="456.964" cy="138.797" r="16.1841" fill="#1A88FF"/>
<rect x="414.481" y="130.705" width="20.2301" height="16.1841" rx="8.09204" fill="#6A6A75"/>
<rect x="442.152" y="97.6689" width="20.2301" height="16.1841" rx="8.09204" transform="rotate(60 442.152 97.6689)" fill="#6A6A75"/>
<rect x="396.78" y="115.189" width="20.2301" height="16.1841" rx="8.09204" transform="rotate(-60 396.78 115.189)" fill="#6A6A75"/>
<path d="M568.015 113.41C569.496 111.929 569.496 109.527 568.015 108.046L543.875 83.9065C542.394 82.4251 539.992 82.4251 538.511 83.9065C537.03 85.3878 537.03 87.7895 538.511 89.2708L559.968 110.728L538.511 132.185C537.03 133.667 537.03 136.068 538.511 137.55C539.992 139.031 542.394 139.031 543.875 137.55L568.015 113.41ZM521.332 114.521H565.333V106.935H521.332V114.521Z" fill="#2856B6"/>
<circle cx="616.488" cy="53.2618" r="19.1554" fill="#2856B6"/>
<circle cx="616.488" cy="53.2619" r="17.9582" fill="#F5F4F6"/>
<circle cx="616.488" cy="53.2618" r="9.57769" fill="#1A88FF"/>
<circle cx="616.488" cy="129.883" r="19.1554" fill="#2856B6"/>
<circle cx="616.488" cy="129.883" r="17.9582" fill="#F5F4F6"/>
<circle cx="616.488" cy="129.883" r="9.57769" fill="#1A88FF"/>
<circle cx="693.11" cy="53.2618" r="19.1554" fill="#2856B6"/>
<circle cx="693.11" cy="53.2619" r="17.9582" fill="#F5F4F6"/>
<circle cx="693.11" cy="53.2618" r="9.57769" fill="#1A88FF"/>
<circle cx="693.11" cy="129.883" r="19.1554" fill="#2856B6"/>
<circle cx="693.11" cy="129.883" r="17.9582" fill="#F5F4F6"/>
<circle cx="693.11" cy="129.883" r="9.57769" fill="#1A88FF"/>
<circle cx="616.488" cy="91.5724" r="19.1554" fill="#2856B6"/>
<circle cx="616.488" cy="91.5724" r="17.9582" fill="#F5F4F6"/>
<circle cx="616.488" cy="91.5723" r="9.57769" fill="#1A88FF"/>
<circle cx="616.488" cy="168.194" r="19.1554" fill="#2856B6"/>
<circle cx="616.488" cy="168.194" r="17.9582" fill="#F5F4F6"/>
<circle cx="616.488" cy="168.194" r="9.57769" fill="#1A88FF"/>
<circle cx="693.11" cy="91.5724" r="19.1554" fill="#2856B6"/>
<circle cx="693.11" cy="91.5724" r="17.9582" fill="#F5F4F6"/>
<circle cx="693.11" cy="91.5723" r="9.57769" fill="#1A88FF"/>
<circle cx="693.11" cy="168.194" r="19.1554" fill="#2856B6"/>
<circle cx="693.11" cy="168.194" r="17.9582" fill="#F5F4F6"/>
<circle cx="693.11" cy="168.194" r="9.57769" fill="#1A88FF"/>
<circle cx="654.799" cy="53.2618" r="19.1554" fill="#2856B6"/>
<circle cx="654.799" cy="53.2619" r="17.9582" fill="#F5F4F6"/>
<circle cx="654.799" cy="53.2618" r="9.57769" fill="#1A88FF"/>
<circle cx="654.799" cy="129.883" r="19.1554" fill="#2856B6"/>
<circle cx="654.799" cy="129.883" r="17.9582" fill="#F5F4F6"/>
<circle cx="654.799" cy="129.883" r="9.57769" fill="#1A88FF"/>
<circle cx="731.42" cy="53.2618" r="19.1554" fill="#2856B6"/>
<circle cx="731.42" cy="53.2619" r="17.9582" fill="#F5F4F6"/>
<circle cx="731.42" cy="53.2618" r="9.57769" fill="#1A88FF"/>
<circle cx="731.42" cy="129.883" r="19.1554" fill="#2856B6"/>
<circle cx="731.42" cy="129.883" r="17.9582" fill="#F5F4F6"/>
<circle cx="731.42" cy="129.883" r="9.57769" fill="#1A88FF"/>
<circle cx="654.799" cy="91.5724" r="19.1554" fill="#2856B6"/>
<circle cx="654.799" cy="91.5724" r="17.9582" fill="#F5F4F6"/>
<circle cx="654.799" cy="91.5723" r="9.57769" fill="#1A88FF"/>
<circle cx="654.799" cy="168.194" r="19.1554" fill="#2856B6"/>
<circle cx="654.799" cy="168.194" r="17.9582" fill="#F5F4F6"/>
<circle cx="654.799" cy="168.194" r="9.57769" fill="#1A88FF"/>
<circle cx="731.42" cy="91.5724" r="19.1554" fill="#2856B6"/>
<circle cx="731.42" cy="91.5724" r="17.9582" fill="#F5F4F6"/>
<circle cx="731.42" cy="91.5723" r="9.57769" fill="#1A88FF"/>
<circle cx="731.42" cy="168.194" r="19.1554" fill="#2856B6"/>
<circle cx="731.42" cy="168.194" r="17.9582" fill="#F5F4F6"/>
<circle cx="731.42" cy="168.194" r="9.57769" fill="#1A88FF"/>
<rect x="629.657" y="48.4731" width="11.9721" height="9.57769" rx="4.78884" fill="#6A6A75"/>
<rect x="629.657" y="125.094" width="11.9721" height="9.57769" rx="4.78884" fill="#6A6A75"/>
<rect x="706.279" y="48.4731" width="11.9721" height="9.57769" rx="4.78884" fill="#6A6A75"/>
<rect x="706.279" y="125.094" width="11.9721" height="9.57769" rx="4.78884" fill="#6A6A75"/>
<rect x="667.968" y="48.4731" width="11.9721" height="9.57769" rx="4.78884" fill="#6A6A75"/>
<rect x="667.968" y="125.094" width="11.9721" height="9.57769" rx="4.78884" fill="#6A6A75"/>
<rect x="629.657" y="86.7837" width="11.9721" height="9.57769" rx="4.78884" fill="#6A6A75"/>
<rect x="629.657" y="163.405" width="11.9721" height="9.57769" rx="4.78884" fill="#6A6A75"/>
<rect x="706.279" y="86.7837" width="11.9721" height="9.57769" rx="4.78884" fill="#6A6A75"/>
<rect x="706.279" y="163.405" width="11.9721" height="9.57769" rx="4.78884" fill="#6A6A75"/>
<rect x="667.968" y="86.7837" width="11.9721" height="9.57769" rx="4.78884" fill="#6A6A75"/>
<rect x="667.968" y="163.405" width="11.9721" height="9.57769" rx="4.78884" fill="#6A6A75"/>
<rect x="621.277" y="66.4312" width="11.9721" height="9.57769" rx="4.78884" transform="rotate(90 621.277 66.4312)" fill="#6A6A75"/>
<rect x="621.277" y="104.742" width="11.9721" height="9.57769" rx="4.78884" transform="rotate(90 621.277 104.742)" fill="#6A6A75"/>
<rect x="621.277" y="143.053" width="11.9721" height="9.57769" rx="4.78884" transform="rotate(90 621.277 143.053)" fill="#6A6A75"/>
<rect x="697.898" y="66.4312" width="11.9721" height="9.57769" rx="4.78884" transform="rotate(90 697.898 66.4312)" fill="#6A6A75"/>
<rect x="697.898" y="104.742" width="11.9721" height="9.57769" rx="4.78884" transform="rotate(90 697.898 104.742)" fill="#6A6A75"/>
<rect x="697.898" y="143.053" width="11.9721" height="9.57769" rx="4.78884" transform="rotate(90 697.898 143.053)" fill="#6A6A75"/>
<rect x="659.588" y="66.4312" width="11.9721" height="9.57769" rx="4.78884" transform="rotate(90 659.588 66.4312)" fill="#6A6A75"/>
<rect x="659.588" y="104.742" width="11.9721" height="9.57769" rx="4.78884" transform="rotate(90 659.588 104.742)" fill="#6A6A75"/>
<rect x="659.588" y="143.053" width="11.9721" height="9.57769" rx="4.78884" transform="rotate(90 659.588 143.053)" fill="#6A6A75"/>
<rect x="736.209" y="66.4312" width="11.9721" height="9.57769" rx="4.78884" transform="rotate(90 736.209 66.4312)" fill="#6A6A75"/>
<rect x="736.209" y="104.742" width="11.9721" height="9.57769" rx="4.78884" transform="rotate(90 736.209 104.742)" fill="#6A6A75"/>
<rect x="736.209" y="143.053" width="11.9721" height="9.57769" rx="4.78884" transform="rotate(90 736.209 143.053)" fill="#6A6A75"/>
<path d="M829.258 113.41C830.74 111.929 830.74 109.527 829.258 108.046L805.119 83.9065C803.638 82.4251 801.236 82.4251 799.755 83.9065C798.273 85.3878 798.273 87.7895 799.755 89.2708L821.212 110.728L799.755 132.185C798.273 133.667 798.273 136.068 799.755 137.55C801.236 139.031 803.638 139.031 805.119 137.55L829.258 113.41ZM782.576 114.521H826.576V106.935H782.576V114.521Z" fill="#2856B6"/>
<path fill-rule="evenodd" clip-rule="evenodd" d="M986.743 11.7553C981.364 10.913 975.902 10.5187 970.413 10.5995C964.983 10.6794 959.575 11.213 954.259 12.1865L952.437 2.23682C958.304 1.16262 964.271 0.573766 970.264 0.485541C976.336 0.396154 982.372 0.832417 988.308 1.7621L986.743 11.7553ZM923.873 23.2722L918.831 14.5032C913.632 17.4923 908.679 20.9479 904.052 24.8576C899.348 28.8323 895.399 33.2732 892.02 37.9804L900.237 43.8791C903.194 39.7608 906.59 35.9558 910.58 32.5836C914.733 29.0746 919.187 25.9661 923.873 23.2722ZM886.579 71.2802L877.098 67.7557C875.596 71.7962 874.177 75.8991 872.807 79.8598C872.506 80.7276 872.208 81.5886 871.913 82.4406C870.85 85.5 869.74 88.4784 868.58 91.5908C867.916 93.3712 867.237 95.1955 866.54 97.1038L876.042 100.573C876.687 98.8057 877.343 97.0428 877.998 95.2852C879.189 92.0891 880.373 88.9108 881.468 85.7585C881.772 84.8826 882.076 84.0053 882.379 83.1274C883.748 79.1713 885.121 75.2017 886.579 71.2802ZM868.715 131.126L858.605 130.815C858.412 137.079 859.171 143.524 861.423 149.982C863.678 156.447 867.116 161.954 871.185 166.718L878.876 160.149C875.49 156.184 872.753 151.752 870.974 146.651C869.189 141.533 868.555 136.346 868.715 131.126ZM903.612 179.383L898.324 188.006C899.732 188.87 901.105 189.703 902.449 190.519C905.588 192.424 908.575 194.237 911.517 196.136C912.822 196.979 914.167 197.856 915.535 198.748C918.316 200.56 921.192 202.435 924.028 204.216L929.409 195.651C926.641 193.913 923.896 192.123 921.16 190.339C919.773 189.435 918.388 188.532 917.004 187.639C913.938 185.659 910.761 183.731 907.568 181.793C906.25 180.993 904.929 180.191 903.612 179.383ZM955.87 208.558L953.018 218.262C958.449 219.858 964.183 220.866 970.238 220.971C976.058 221.072 981.779 220.5 987.338 219.371L985.326 209.458C980.44 210.45 975.454 210.945 970.413 210.857C965.382 210.77 960.551 209.933 955.87 208.558ZM1013.01 198.253L1018.3 206.875C1022.99 203.995 1027.45 200.774 1031.64 197.307C1035.98 193.716 1039.72 189.741 1042.98 185.532L1034.99 179.33C1032.13 183.023 1028.9 186.448 1025.19 189.515C1021.35 192.696 1017.27 195.636 1013.01 198.253ZM1048.81 154.691L1058.1 158.692C1060.03 154.201 1061.83 149.656 1063.55 145.273C1064.41 143.081 1065.3 140.877 1066.22 138.614L1066.33 138.352C1067.27 136.013 1068.24 133.612 1069.19 131.195L1059.77 127.508C1058.81 129.957 1057.82 132.4 1056.84 134.837C1055.93 137.086 1055.02 139.331 1054.14 141.571C1052.41 145.965 1050.67 150.368 1048.81 154.691ZM1067.72 98.3743L1077.79 99.2898C1078.32 93.464 1078.14 87.4387 1076.89 81.275C1075.65 75.1968 1073.73 69.3622 1071.26 63.8158L1062.02 67.9255C1064.21 72.8419 1065.89 77.9779 1066.98 83.2963C1068.01 88.3632 1068.17 93.3874 1067.72 98.3743ZM1043.71 41.4532L1050.93 34.3706C1046.79 30.1461 1042.32 26.2522 1037.63 22.7219C1032.81 19.0971 1027.72 15.876 1022.42 13.088L1017.71 22.0417C1022.54 24.5769 1027.17 27.5063 1031.55 30.8029C1035.85 34.0414 1039.93 37.6035 1043.71 41.4532Z" fill="#1A88FF"/>
<circle r="8.26065" transform="matrix(-0.96458 0.263789 0.263789 0.96458 989.752 117.545)" fill="#2856B6"/>
<circle r="7.74436" transform="matrix(-0.96458 0.263789 0.263789 0.96458 989.752 117.545)" fill="#F5F4F6"/>
<circle r="4.13033" transform="matrix(-0.96458 0.263789 0.263789 0.96458 989.752 117.545)" fill="#1A88FF"/>
<circle r="8.26065" transform="matrix(-0.96458 0.263789 0.263789 0.96458 998.468 149.417)" fill="#2856B6"/>
<circle r="7.74436" transform="matrix(-0.96458 0.263789 0.263789 0.96458 998.468 149.417)" fill="#F5F4F6"/>
<circle r="4.13033" transform="matrix(-0.96458 0.263789 0.263789 0.96458 998.468 149.417)" fill="#1A88FF"/>
<circle r="8.26065" transform="matrix(-0.96458 0.263789 0.263789 0.96458 957.88 126.261)" fill="#2856B6"/>
<circle r="7.74436" transform="matrix(-0.96458 0.263789 0.263789 0.96458 957.88 126.261)" fill="#F5F4F6"/>
<circle r="4.13033" transform="matrix(-0.96458 0.263789 0.263789 0.96458 957.88 126.261)" fill="#1A88FF"/>
<circle r="8.26065" transform="matrix(-0.96458 0.263789 0.263789 0.96458 966.596 158.133)" fill="#2856B6"/>
<circle r="7.74436" transform="matrix(-0.96458 0.263789 0.263789 0.96458 966.596 158.134)" fill="#F5F4F6"/>
<circle r="4.13033" transform="matrix(-0.96458 0.263789 0.263789 0.96458 966.596 158.134)" fill="#1A88FF"/>
<circle r="8.26065" transform="matrix(-0.96458 0.263789 0.263789 0.96458 994.11 133.481)" fill="#2856B6"/>
<circle r="7.74436" transform="matrix(-0.96458 0.263789 0.263789 0.96458 994.11 133.481)" fill="#F5F4F6"/>
<circle r="4.13033" transform="matrix(-0.96458 0.263789 0.263789 0.96458 994.11 133.481)" fill="#1A88FF"/>
<circle r="8.26065" transform="matrix(-0.96458 0.263789 0.263789 0.96458 1002.83 165.353)" fill="#2856B6"/>
<circle r="7.74436" transform="matrix(-0.96458 0.263789 0.263789 0.96458 1002.83 165.353)" fill="#F5F4F6"/>
<circle r="4.13033" transform="matrix(-0.96458 0.263789 0.263789 0.96458 1002.83 165.353)" fill="#1A88FF"/>
<circle r="8.26065" transform="matrix(-0.96458 0.263789 0.263789 0.96458 962.238 142.197)" fill="#2856B6"/>
<circle r="7.74436" transform="matrix(-0.96458 0.263789 0.263789 0.96458 962.238 142.197)" fill="#F5F4F6"/>
<circle r="4.13033" transform="matrix(-0.96458 0.263789 0.263789 0.96458 962.238 142.197)" fill="#1A88FF"/>
<circle r="8.26065" transform="matrix(-0.96458 0.263789 0.263789 0.96458 970.954 174.069)" fill="#2856B6"/>
<circle r="7.74436" transform="matrix(-0.96458 0.263789 0.263789 0.96458 970.954 174.07)" fill="#F5F4F6"/>
<circle r="4.13033" transform="matrix(-0.96458 0.263789 0.263789 0.96458 970.954 174.07)" fill="#1A88FF"/>
<circle r="8.26065" transform="matrix(-0.96458 0.263789 0.263789 0.96458 973.816 121.903)" fill="#2856B6"/>
<circle r="7.74436" transform="matrix(-0.96458 0.263789 0.263789 0.96458 973.816 121.903)" fill="#F5F4F6"/>
<circle r="4.13033" transform="matrix(-0.96458 0.263789 0.263789 0.96458 973.816 121.903)" fill="#1A88FF"/>
<circle r="8.26065" transform="matrix(-0.96458 0.263789 0.263789 0.96458 982.532 153.775)" fill="#2856B6"/>
<circle r="7.74436" transform="matrix(-0.96458 0.263789 0.263789 0.96458 982.532 153.775)" fill="#F5F4F6"/>
<circle r="4.13033" transform="matrix(-0.96458 0.263789 0.263789 0.96458 982.532 153.775)" fill="#1A88FF"/>
<circle r="8.26065" transform="matrix(-0.96458 0.263789 0.263789 0.96458 941.943 130.619)" fill="#2856B6"/>
<circle r="7.74436" transform="matrix(-0.96458 0.263789 0.263789 0.96458 941.944 130.619)" fill="#F5F4F6"/>
<circle r="4.13033" transform="matrix(-0.96458 0.263789 0.263789 0.96458 941.944 130.619)" fill="#1A88FF"/>
<circle r="8.26065" transform="matrix(-0.96458 0.263789 0.263789 0.96458 950.66 162.491)" fill="#2856B6"/>
<circle r="7.74436" transform="matrix(-0.96458 0.263789 0.263789 0.96458 950.66 162.491)" fill="#F5F4F6"/>
<circle r="4.13033" transform="matrix(-0.96458 0.263789 0.263789 0.96458 950.66 162.492)" fill="#1A88FF"/>
<circle r="8.26065" transform="matrix(-0.96458 0.263789 0.263789 0.96458 978.174 137.839)" fill="#2856B6"/>
<circle r="7.74436" transform="matrix(-0.96458 0.263789 0.263789 0.96458 978.174 137.839)" fill="#F5F4F6"/>
<circle r="4.13033" transform="matrix(-0.96458 0.263789 0.263789 0.96458 978.174 137.839)" fill="#1A88FF"/>
<circle r="8.26065" transform="matrix(-0.96458 0.263789 0.263789 0.96458 986.89 169.711)" fill="#2856B6"/>
<circle r="7.74436" transform="matrix(-0.96458 0.263789 0.263789 0.96458 986.89 169.711)" fill="#F5F4F6"/>
<circle r="4.13033" transform="matrix(-0.96458 0.263789 0.263789 0.96458 986.89 169.711)" fill="#1A88FF"/>
<circle r="8.26065" transform="matrix(-0.96458 0.263789 0.263789 0.96458 946.302 146.555)" fill="#2856B6"/>
<circle r="7.74436" transform="matrix(-0.96458 0.263789 0.263789 0.96458 946.302 146.555)" fill="#F5F4F6"/>
<circle r="4.13033" transform="matrix(-0.96458 0.263789 0.263789 0.96458 946.302 146.555)" fill="#1A88FF"/>
<circle r="8.26065" transform="matrix(-0.96458 0.263789 0.263789 0.96458 955.018 178.427)" fill="#2856B6"/>
<circle r="7.74436" transform="matrix(-0.96458 0.263789 0.263789 0.96458 955.018 178.427)" fill="#F5F4F6"/>
<circle r="4.13033" transform="matrix(-0.96458 0.263789 0.263789 0.96458 955.018 178.428)" fill="#1A88FF"/>
<rect width="5.16291" height="4.13033" rx="2.06516" transform="matrix(-0.96458 0.263789 0.263789 0.96458 983.729 117.051)" fill="#6A6A75"/>
<rect width="5.16291" height="4.13033" rx="2.06516" transform="matrix(-0.96458 0.263789 0.263789 0.96458 992.445 148.923)" fill="#6A6A75"/>
<rect width="5.16291" height="4.13033" rx="2.06516" transform="matrix(-0.96458 0.263789 0.263789 0.96458 951.857 125.767)" fill="#6A6A75"/>
<rect width="5.16291" height="4.13033" rx="2.06516" transform="matrix(-0.96458 0.263789 0.263789 0.96458 960.573 157.639)" fill="#6A6A75"/>
<rect width="5.16291" height="4.13033" rx="2.06516" transform="matrix(-0.96458 0.263789 0.263789 0.96458 967.793 121.409)" fill="#6A6A75"/>
<rect width="5.16291" height="4.13033" rx="2.06516" transform="matrix(-0.96458 0.263789 0.263789 0.96458 976.509 153.281)" fill="#6A6A75"/>
<rect width="5.16291" height="4.13033" rx="2.06516" transform="matrix(-0.96458 0.263789 0.263789 0.96458 988.087 132.987)" fill="#6A6A75"/>
<rect width="5.16291" height="4.13033" rx="2.06516" transform="matrix(-0.96458 0.263789 0.263789 0.96458 996.804 164.859)" fill="#6A6A75"/>
<rect width="5.16291" height="4.13033" rx="2.06516" transform="matrix(-0.96458 0.263789 0.263789 0.96458 956.215 141.703)" fill="#6A6A75"/>
<rect width="5.16291" height="4.13033" rx="2.06516" transform="matrix(-0.96458 0.263789 0.263789 0.96458 964.931 173.575)" fill="#6A6A75"/>
<rect width="5.16291" height="4.13033" rx="2.06516" transform="matrix(-0.96458 0.263789 0.263789 0.96458 972.151 137.345)" fill="#6A6A75"/>
<rect width="5.16291" height="4.13033" rx="2.06516" transform="matrix(-0.96458 0.263789 0.263789 0.96458 980.867 169.217)" fill="#6A6A75"/>
<rect width="5.16291" height="4.13033" rx="2.06516" transform="matrix(0.263789 0.96458 0.96458 -0.263789 989.258 123.567)" fill="#6A6A75"/>
<rect width="5.16291" height="4.13033" rx="2.06516" transform="matrix(0.263789 0.96458 0.96458 -0.263789 993.616 139.503)" fill="#6A6A75"/>
<rect width="5.16291" height="4.13033" rx="2.06516" transform="matrix(0.263789 0.96458 0.96458 -0.263789 997.974 155.44)" fill="#6A6A75"/>
<rect width="5.16291" height="4.13033" rx="2.06516" transform="matrix(0.263789 0.96458 0.96458 -0.263789 957.386 132.284)" fill="#6A6A75"/>
<rect width="5.16291" height="4.13033" rx="2.06516" transform="matrix(0.263789 0.96458 0.96458 -0.263789 961.744 148.22)" fill="#6A6A75"/>
<rect width="5.16291" height="4.13033" rx="2.06516" transform="matrix(0.263789 0.96458 0.96458 -0.263789 966.102 164.156)" fill="#6A6A75"/>
<rect width="5.16291" height="4.13033" rx="2.06516" transform="matrix(0.263789 0.96458 0.96458 -0.263789 973.322 127.926)" fill="#6A6A75"/>
<rect width="5.16291" height="4.13033" rx="2.06516" transform="matrix(0.263789 0.96458 0.96458 -0.263789 977.68 143.862)" fill="#6A6A75"/>
<rect width="5.16291" height="4.13033" rx="2.06516" transform="matrix(0.263789 0.96458 0.96458 -0.263789 982.038 159.798)" fill="#6A6A75"/>
<rect width="5.16291" height="4.13033" rx="2.06516" transform="matrix(0.263789 0.96458 0.96458 -0.263789 941.45 136.642)" fill="#6A6A75"/>
<rect width="5.16291" height="4.13033" rx="2.06516" transform="matrix(0.263789 0.96458 0.96458 -0.263789 945.808 152.578)" fill="#6A6A75"/>
<rect width="5.16291" height="4.13033" rx="2.06516" transform="matrix(0.263789 0.96458 0.96458 -0.263789 950.166 168.514)" fill="#6A6A75"/>
<circle r="4.55177" transform="matrix(-0.984315 -0.176422 -0.176422 0.984315 932.366 72.297)" fill="#2856B6"/>
<circle r="4.26729" transform="matrix(-0.984315 -0.176422 -0.176422 0.984315 932.366 72.2971)" fill="#F5F4F6"/>
<circle r="2.27589" transform="matrix(-0.984315 -0.176422 -0.176422 0.984315 932.366 72.2972)" fill="#1A88FF"/>
<circle r="4.55177" transform="matrix(-0.984315 -0.176422 -0.176422 0.984315 929.154 90.2184)" fill="#2856B6"/>
<circle r="4.26729" transform="matrix(-0.984315 -0.176422 -0.176422 0.984315 929.154 90.2185)" fill="#F5F4F6"/>
<circle r="2.27589" transform="matrix(-0.984315 -0.176422 -0.176422 0.984315 929.154 90.2186)" fill="#1A88FF"/>
<circle r="4.55177" transform="matrix(-0.984315 -0.176422 -0.176422 0.984315 914.445 69.0851)" fill="#2856B6"/>
<circle r="4.26729" transform="matrix(-0.984315 -0.176422 -0.176422 0.984315 914.445 69.0852)" fill="#F5F4F6"/>
<circle r="2.27589" transform="matrix(-0.984315 -0.176422 -0.176422 0.984315 914.445 69.0853)" fill="#1A88FF"/>
<circle r="4.55177" transform="matrix(-0.984315 -0.176422 -0.176422 0.984315 911.233 87.0064)" fill="#2856B6"/>
<circle r="4.26729" transform="matrix(-0.984315 -0.176422 -0.176422 0.984315 911.233 87.0066)" fill="#F5F4F6"/>
<circle r="2.27589" transform="matrix(-0.984315 -0.176422 -0.176422 0.984315 911.233 87.0066)" fill="#1A88FF"/>
<circle r="4.55177" transform="matrix(-0.984315 -0.176422 -0.176422 0.984315 930.76 81.2579)" fill="#2856B6"/>
<circle r="4.26729" transform="matrix(-0.984315 -0.176422 -0.176422 0.984315 930.76 81.2581)" fill="#F5F4F6"/>
<circle r="2.27589" transform="matrix(-0.984315 -0.176422 -0.176422 0.984315 930.76 81.2581)" fill="#1A88FF"/>
<circle r="4.55177" transform="matrix(-0.984315 -0.176422 -0.176422 0.984315 927.548 99.1793)" fill="#2856B6"/>
<circle r="4.26729" transform="matrix(-0.984315 -0.176422 -0.176422 0.984315 927.548 99.1794)" fill="#F5F4F6"/>
<circle r="2.27589" transform="matrix(-0.984315 -0.176422 -0.176422 0.984315 927.548 99.1795)" fill="#1A88FF"/>
<circle r="4.55177" transform="matrix(-0.984315 -0.176422 -0.176422 0.984315 912.839 78.0455)" fill="#2856B6"/>
<circle r="4.26729" transform="matrix(-0.984315 -0.176422 -0.176422 0.984315 912.839 78.0457)" fill="#F5F4F6"/>
<circle r="2.27589" transform="matrix(-0.984315 -0.176422 -0.176422 0.984315 912.839 78.0457)" fill="#1A88FF"/>
<circle r="4.55177" transform="matrix(-0.984315 -0.176422 -0.176422 0.984315 909.627 95.9669)" fill="#2856B6"/>
<circle r="4.26729" transform="matrix(-0.984315 -0.176422 -0.176422 0.984315 909.627 95.967)" fill="#F5F4F6"/>
<circle r="2.27589" transform="matrix(-0.984315 -0.176422 -0.176422 0.984315 909.627 95.9671)" fill="#1A88FF"/>
<circle r="4.55177" transform="matrix(-0.984315 -0.176422 -0.176422 0.984315 923.406 70.691)" fill="#2856B6"/>
<circle r="4.26729" transform="matrix(-0.984315 -0.176422 -0.176422 0.984315 923.405 70.6912)" fill="#F5F4F6"/>
<circle r="2.27589" transform="matrix(-0.984315 -0.176422 -0.176422 0.984315 923.405 70.6912)" fill="#1A88FF"/>
<circle r="4.55177" transform="matrix(-0.984315 -0.176422 -0.176422 0.984315 920.193 88.6124)" fill="#2856B6"/>
<circle r="4.26729" transform="matrix(-0.984315 -0.176422 -0.176422 0.984315 920.194 88.6125)" fill="#F5F4F6"/>
<circle r="2.27589" transform="matrix(-0.984315 -0.176422 -0.176422 0.984315 920.193 88.6126)" fill="#1A88FF"/>
<circle r="4.55177" transform="matrix(-0.984315 -0.176422 -0.176422 0.984315 905.484 67.4786)" fill="#2856B6"/>
<circle r="4.26729" transform="matrix(-0.984315 -0.176422 -0.176422 0.984315 905.484 67.4788)" fill="#F5F4F6"/>
<circle r="2.27589" transform="matrix(-0.984315 -0.176422 -0.176422 0.984315 905.484 67.4788)" fill="#1A88FF"/>
<circle r="4.55177" transform="matrix(-0.984315 -0.176422 -0.176422 0.984315 902.272 85.4005)" fill="#2856B6"/>
<circle r="4.26729" transform="matrix(-0.984315 -0.176422 -0.176422 0.984315 902.272 85.4006)" fill="#F5F4F6"/>
<circle r="2.27589" transform="matrix(-0.984315 -0.176422 -0.176422 0.984315 902.272 85.4007)" fill="#1A88FF"/>
<circle r="4.55177" transform="matrix(-0.984315 -0.176422 -0.176422 0.984315 921.799 79.6515)" fill="#2856B6"/>
<circle r="4.26729" transform="matrix(-0.984315 -0.176422 -0.176422 0.984315 921.799 79.6516)" fill="#F5F4F6"/>
<circle r="2.27589" transform="matrix(-0.984315 -0.176422 -0.176422 0.984315 921.799 79.6517)" fill="#1A88FF"/>
<circle r="4.55177" transform="matrix(-0.984315 -0.176422 -0.176422 0.984315 918.587 97.5733)" fill="#2856B6"/>
<circle r="4.26729" transform="matrix(-0.984315 -0.176422 -0.176422 0.984315 918.587 97.5735)" fill="#F5F4F6"/>
<circle r="2.27589" transform="matrix(-0.984315 -0.176422 -0.176422 0.984315 918.587 97.5735)" fill="#1A88FF"/>
<circle r="4.55177" transform="matrix(-0.984315 -0.176422 -0.176422 0.984315 903.878 76.4396)" fill="#2856B6"/>
<circle r="4.26729" transform="matrix(-0.984315 -0.176422 -0.176422 0.984315 903.878 76.4397)" fill="#F5F4F6"/>
<circle r="2.27589" transform="matrix(-0.984315 -0.176422 -0.176422 0.984315 903.878 76.4397)" fill="#1A88FF"/>
<circle r="4.55177" transform="matrix(-0.984315 -0.176422 -0.176422 0.984315 900.666 94.3609)" fill="#2856B6"/>
<circle r="4.26729" transform="matrix(-0.984315 -0.176422 -0.176422 0.984315 900.666 94.3611)" fill="#F5F4F6"/>
<circle r="2.27589" transform="matrix(-0.984315 -0.176422 -0.176422 0.984315 900.666 94.3611)" fill="#1A88FF"/>
<rect width="2.84486" height="2.27589" rx="1.13794" transform="matrix(-0.984315 -0.176422 -0.176422 0.984315 929.487 70.625)" fill="#6A6A75"/>
<rect width="2.84486" height="2.27589" rx="1.13794" transform="matrix(-0.984315 -0.176422 -0.176422 0.984315 926.275 88.5464)" fill="#6A6A75"/>
<rect width="2.84486" height="2.27589" rx="1.13794" transform="matrix(-0.984315 -0.176422 -0.176422 0.984315 911.565 67.4126)" fill="#6A6A75"/>
<rect width="2.84486" height="2.27589" rx="1.13794" transform="matrix(-0.984315 -0.176422 -0.176422 0.984315 908.353 85.334)" fill="#6A6A75"/>
<rect width="2.84486" height="2.27589" rx="1.13794" transform="matrix(-0.984315 -0.176422 -0.176422 0.984315 920.526 69.0186)" fill="#6A6A75"/>
<rect width="2.84486" height="2.27589" rx="1.13794" transform="matrix(-0.984315 -0.176422 -0.176422 0.984315 917.314 86.9404)" fill="#6A6A75"/>
<rect width="2.84486" height="2.27589" rx="1.13794" transform="matrix(-0.984315 -0.176422 -0.176422 0.984315 927.881 79.5854)" fill="#6A6A75"/>
<rect width="2.84486" height="2.27589" rx="1.13794" transform="matrix(-0.984315 -0.176422 -0.176422 0.984315 924.668 97.5068)" fill="#6A6A75"/>
<rect width="2.84486" height="2.27589" rx="1.13794" transform="matrix(-0.984315 -0.176422 -0.176422 0.984315 909.959 76.3735)" fill="#6A6A75"/>
<rect width="2.84486" height="2.27589" rx="1.13794" transform="matrix(-0.984315 -0.176422 -0.176422 0.984315 906.747 94.2949)" fill="#6A6A75"/>
<rect width="2.84486" height="2.27589" rx="1.13794" transform="matrix(-0.984315 -0.176422 -0.176422 0.984315 918.92 77.9795)" fill="#6A6A75"/>
<rect width="2.84486" height="2.27589" rx="1.13794" transform="matrix(-0.984315 -0.176422 -0.176422 0.984315 915.708 95.9009)" fill="#6A6A75"/>
<rect width="2.84486" height="2.27589" rx="1.13794" transform="matrix(-0.176422 0.984315 0.984315 0.176422 930.694 75.1763)" fill="#6A6A75"/>
<rect width="2.84486" height="2.27589" rx="1.13794" transform="matrix(-0.176422 0.984315 0.984315 0.176422 929.088 84.1372)" fill="#6A6A75"/>
<rect width="2.84486" height="2.27589" rx="1.13794" transform="matrix(-0.176422 0.984315 0.984315 0.176422 927.482 93.0981)" fill="#6A6A75"/>
<rect width="2.84486" height="2.27589" rx="1.13794" transform="matrix(-0.176422 0.984315 0.984315 0.176422 912.773 71.9644)" fill="#6A6A75"/>
<rect width="2.84486" height="2.27589" rx="1.13794" transform="matrix(-0.176422 0.984315 0.984315 0.176422 911.167 80.9253)" fill="#6A6A75"/>
<rect width="2.84486" height="2.27589" rx="1.13794" transform="matrix(-0.176422 0.984315 0.984315 0.176422 909.561 89.8857)" fill="#6A6A75"/>
<rect width="2.84486" height="2.27589" rx="1.13794" transform="matrix(-0.176422 0.984315 0.984315 0.176422 921.733 73.5703)" fill="#6A6A75"/>
<rect width="2.84486" height="2.27589" rx="1.13794" transform="matrix(-0.176422 0.984315 0.984315 0.176422 920.127 82.5312)" fill="#6A6A75"/>
<rect width="2.84486" height="2.27589" rx="1.13794" transform="matrix(-0.176422 0.984315 0.984315 0.176422 918.521 91.4917)" fill="#6A6A75"/>
<rect width="2.84486" height="2.27589" rx="1.13794" transform="matrix(-0.176422 0.984315 0.984315 0.176422 903.812 70.3584)" fill="#6A6A75"/>
<rect width="2.84486" height="2.27589" rx="1.13794" transform="matrix(-0.176422 0.984315 0.984315 0.176422 902.206 79.3188)" fill="#6A6A75"/>
<rect width="2.84486" height="2.27589" rx="1.13794" transform="matrix(-0.176422 0.984315 0.984315 0.176422 900.6 88.2798)" fill="#6A6A75"/>
<circle r="1.84134" transform="matrix(-0.996778 0.0802117 0.0802117 0.996778 1038.36 109.925)" fill="#2856B6"/>
<circle r="1.72625" transform="matrix(-0.996778 0.0802117 0.0802117 0.996778 1038.36 109.926)" fill="#F5F4F6"/>
<circle r="0.920668" transform="matrix(-0.996778 0.0802117 0.0802117 0.996778 1038.36 109.926)" fill="#1A88FF"/>
<circle r="1.84134" transform="matrix(-0.996778 0.0802117 0.0802117 0.996778 1038.95 117.267)" fill="#2856B6"/>
<circle r="1.72625" transform="matrix(-0.996778 0.0802117 0.0802117 0.996778 1038.95 117.267)" fill="#F5F4F6"/>
<circle r="0.920668" transform="matrix(-0.996778 0.0802117 0.0802117 0.996778 1038.95 117.267)" fill="#1A88FF"/>
<circle r="1.84134" transform="matrix(-0.996778 0.0802117 0.0802117 0.996778 1031.02 110.516)" fill="#2856B6"/>
<circle r="1.72625" transform="matrix(-0.996778 0.0802117 0.0802117 0.996778 1031.02 110.516)" fill="#F5F4F6"/>
<circle r="0.920668" transform="matrix(-0.996778 0.0802117 0.0802117 0.996778 1031.02 110.516)" fill="#1A88FF"/>
<circle r="1.84134" transform="matrix(-0.996778 0.0802117 0.0802117 0.996778 1031.61 117.858)" fill="#2856B6"/>
<circle r="1.72625" transform="matrix(-0.996778 0.0802117 0.0802117 0.996778 1031.61 117.858)" fill="#F5F4F6"/>
<circle r="0.920668" transform="matrix(-0.996778 0.0802117 0.0802117 0.996778 1031.61 117.858)" fill="#1A88FF"/>
<circle r="1.84134" transform="matrix(-0.996778 0.0802117 0.0802117 0.996778 1038.66 113.596)" fill="#2856B6"/>
<circle r="1.72625" transform="matrix(-0.996778 0.0802117 0.0802117 0.996778 1038.66 113.596)" fill="#F5F4F6"/>
<circle r="0.920668" transform="matrix(-0.996778 0.0802117 0.0802117 0.996778 1038.66 113.597)" fill="#1A88FF"/>
<circle r="1.84134" transform="matrix(-0.996778 0.0802117 0.0802117 0.996778 1039.25 120.938)" fill="#2856B6"/>
<circle r="1.72625" transform="matrix(-0.996778 0.0802117 0.0802117 0.996778 1039.25 120.938)" fill="#F5F4F6"/>
<circle r="0.920668" transform="matrix(-0.996778 0.0802117 0.0802117 0.996778 1039.25 120.938)" fill="#1A88FF"/>
<circle r="1.84134" transform="matrix(-0.996778 0.0802117 0.0802117 0.996778 1031.32 114.187)" fill="#2856B6"/>
<circle r="1.72625" transform="matrix(-0.996778 0.0802117 0.0802117 0.996778 1031.32 114.187)" fill="#F5F4F6"/>
<circle r="0.920668" transform="matrix(-0.996778 0.0802117 0.0802117 0.996778 1031.32 114.187)" fill="#1A88FF"/>
<circle r="1.84134" transform="matrix(-0.996778 0.0802117 0.0802117 0.996778 1031.91 121.529)" fill="#2856B6"/>
<circle r="1.72625" transform="matrix(-0.996778 0.0802117 0.0802117 0.996778 1031.91 121.529)" fill="#F5F4F6"/>
<circle r="0.920668" transform="matrix(-0.996778 0.0802117 0.0802117 0.996778 1031.91 121.529)" fill="#1A88FF"/>
<circle r="1.84134" transform="matrix(-0.996778 0.0802117 0.0802117 0.996778 1034.69 110.221)" fill="#2856B6"/>
<circle r="1.72625" transform="matrix(-0.996778 0.0802117 0.0802117 0.996778 1034.69 110.221)" fill="#F5F4F6"/>
<circle r="0.920668" transform="matrix(-0.996778 0.0802117 0.0802117 0.996778 1034.69 110.221)" fill="#1A88FF"/>
<circle r="1.84134" transform="matrix(-0.996778 0.0802117 0.0802117 0.996778 1035.28 117.563)" fill="#2856B6"/>
<circle r="1.72625" transform="matrix(-0.996778 0.0802117 0.0802117 0.996778 1035.28 117.563)" fill="#F5F4F6"/>
<circle r="0.920668" transform="matrix(-0.996778 0.0802117 0.0802117 0.996778 1035.28 117.563)" fill="#1A88FF"/>
<circle r="1.84134" transform="matrix(-0.996778 0.0802117 0.0802117 0.996778 1027.35 110.812)" fill="#2856B6"/>
<circle r="1.72625" transform="matrix(-0.996778 0.0802117 0.0802117 0.996778 1027.35 110.812)" fill="#F5F4F6"/>
<circle r="0.920668" transform="matrix(-0.996778 0.0802117 0.0802117 0.996778 1027.35 110.812)" fill="#1A88FF"/>
<circle r="1.84134" transform="matrix(-0.996778 0.0802117 0.0802117 0.996778 1027.94 118.154)" fill="#2856B6"/>
<circle r="1.72625" transform="matrix(-0.996778 0.0802117 0.0802117 0.996778 1027.94 118.154)" fill="#F5F4F6"/>
<circle r="0.920668" transform="matrix(-0.996778 0.0802117 0.0802117 0.996778 1027.94 118.154)" fill="#1A88FF"/>
<circle r="1.84134" transform="matrix(-0.996778 0.0802117 0.0802117 0.996778 1034.99 113.892)" fill="#2856B6"/>
<circle r="1.72625" transform="matrix(-0.996778 0.0802117 0.0802117 0.996778 1034.99 113.892)" fill="#F5F4F6"/>
<circle r="0.920668" transform="matrix(-0.996778 0.0802117 0.0802117 0.996778 1034.99 113.892)" fill="#1A88FF"/>
<circle r="1.84134" transform="matrix(-0.996778 0.0802117 0.0802117 0.996778 1035.58 121.233)" fill="#2856B6"/>
<circle r="1.72625" transform="matrix(-0.996778 0.0802117 0.0802117 0.996778 1035.58 121.233)" fill="#F5F4F6"/>
<circle r="0.920668" transform="matrix(-0.996778 0.0802117 0.0802117 0.996778 1035.58 121.233)" fill="#1A88FF"/>
<circle r="1.84134" transform="matrix(-0.996778 0.0802117 0.0802117 0.996778 1027.65 114.483)" fill="#2856B6"/>
<circle r="1.72625" transform="matrix(-0.996778 0.0802117 0.0802117 0.996778 1027.65 114.483)" fill="#F5F4F6"/>
<circle r="0.920668" transform="matrix(-0.996778 0.0802117 0.0802117 0.996778 1027.65 114.483)" fill="#1A88FF"/>
<circle r="1.84134" transform="matrix(-0.996778 0.0802117 0.0802117 0.996778 1028.24 121.824)" fill="#2856B6"/>
<circle r="1.72625" transform="matrix(-0.996778 0.0802117 0.0802117 0.996778 1028.24 121.824)" fill="#F5F4F6"/>
<circle r="0.920668" transform="matrix(-0.996778 0.0802117 0.0802117 0.996778 1028.24 121.824)" fill="#1A88FF"/>
<rect width="1.15084" height="0.920668" rx="0.460334" transform="matrix(-0.996778 0.0802117 0.0802117 0.996778 1037.06 109.568)" fill="#6A6A75"/>
<rect width="1.15084" height="0.920668" rx="0.460334" transform="matrix(-0.996778 0.0802117 0.0802117 0.996778 1037.66 116.91)" fill="#6A6A75"/>
<rect width="1.15084" height="0.920668" rx="0.460334" transform="matrix(-0.996778 0.0802117 0.0802117 0.996778 1029.72 110.159)" fill="#6A6A75"/>
<rect width="1.15084" height="0.920668" rx="0.460334" transform="matrix(-0.996778 0.0802117 0.0802117 0.996778 1030.31 117.5)" fill="#6A6A75"/>
<rect width="1.15084" height="0.920668" rx="0.460334" transform="matrix(-0.996778 0.0802117 0.0802117 0.996778 1033.39 109.864)" fill="#6A6A75"/>
<rect width="1.15084" height="0.920668" rx="0.460334" transform="matrix(-0.996778 0.0802117 0.0802117 0.996778 1033.99 117.205)" fill="#6A6A75"/>
<rect width="1.15084" height="0.920668" rx="0.460334" transform="matrix(-0.996778 0.0802117 0.0802117 0.996778 1037.36 113.239)" fill="#6A6A75"/>
<rect width="1.15084" height="0.920668" rx="0.460334" transform="matrix(-0.996778 0.0802117 0.0802117 0.996778 1037.95 120.581)" fill="#6A6A75"/>
<rect width="1.15084" height="0.920668" rx="0.460334" transform="matrix(-0.996778 0.0802117 0.0802117 0.996778 1030.02 113.83)" fill="#6A6A75"/>
<rect width="1.15084" height="0.920668" rx="0.460334" transform="matrix(-0.996778 0.0802117 0.0802117 0.996778 1030.61 121.171)" fill="#6A6A75"/>
<rect width="1.15084" height="0.920668" rx="0.460334" transform="matrix(-0.996778 0.0802117 0.0802117 0.996778 1033.69 113.534)" fill="#6A6A75"/>
<rect width="1.15084" height="0.920668" rx="0.460334" transform="matrix(-0.996778 0.0802117 0.0802117 0.996778 1034.28 120.876)" fill="#6A6A75"/>
<rect width="1.15084" height="0.920668" rx="0.460334" transform="matrix(0.0802118 0.996778 0.996778 -0.0802118 1038.01 111.224)" fill="#6A6A75"/>
<rect width="1.15084" height="0.920668" rx="0.460334" transform="matrix(0.0802118 0.996778 0.996778 -0.0802118 1038.3 114.895)" fill="#6A6A75"/>
<rect width="1.15084" height="0.920668" rx="0.460334" transform="matrix(0.0802118 0.996778 0.996778 -0.0802118 1038.6 118.566)" fill="#6A6A75"/>
<rect width="1.15084" height="0.920668" rx="0.460334" transform="matrix(0.0802118 0.996778 0.996778 -0.0802118 1030.67 111.815)" fill="#6A6A75"/>
<rect width="1.15084" height="0.920668" rx="0.460334" transform="matrix(0.0802118 0.996778 0.996778 -0.0802118 1030.96 115.486)" fill="#6A6A75"/>
<rect width="1.15084" height="0.920668" rx="0.460334" transform="matrix(0.0802118 0.996778 0.996778 -0.0802118 1031.26 119.157)" fill="#6A6A75"/>
<rect width="1.15084" height="0.920668" rx="0.460334" transform="matrix(0.0802118 0.996778 0.996778 -0.0802118 1034.34 111.52)" fill="#6A6A75"/>
<rect width="1.15084" height="0.920668" rx="0.460334" transform="matrix(0.0802118 0.996778 0.996778 -0.0802118 1034.63 115.19)" fill="#6A6A75"/>
<rect width="1.15084" height="0.920668" rx="0.460334" transform="matrix(0.0802118 0.996778 0.996778 -0.0802118 1034.93 118.861)" fill="#6A6A75"/>
<rect width="1.15084" height="0.920668" rx="0.460334" transform="matrix(0.0802118 0.996778 0.996778 -0.0802118 1026.99 112.11)" fill="#6A6A75"/>
<rect width="1.15084" height="0.920668" rx="0.460334" transform="matrix(0.0802118 0.996778 0.996778 -0.0802118 1027.29 115.781)" fill="#6A6A75"/>
<rect width="1.15084" height="0.920668" rx="0.460334" transform="matrix(0.0802118 0.996778 0.996778 -0.0802118 1027.58 119.452)" fill="#6A6A75"/>
<circle r="5.37362" transform="matrix(-0.822774 -0.568368 -0.568368 0.822774 1030.34 59.8641)" fill="#2856B6"/>
<circle r="5.03777" transform="matrix(-0.822774 -0.568368 -0.568368 0.822774 1030.34 59.8642)" fill="#F5F4F6"/>
<circle r="2.68681" transform="matrix(-0.822774 -0.568368 -0.568368 0.822774 1030.34 59.8642)" fill="#1A88FF"/>
<circle r="5.37362" transform="matrix(-0.822774 -0.568368 -0.568368 0.822774 1018.12 77.5492)" fill="#2856B6"/>
<circle r="5.03777" transform="matrix(-0.822774 -0.568368 -0.568368 0.822774 1018.12 77.5492)" fill="#F5F4F6"/>
<circle r="2.68681" transform="matrix(-0.822774 -0.568368 -0.568368 0.822774 1018.12 77.5493)" fill="#1A88FF"/>
<circle r="5.37362" transform="matrix(-0.822774 -0.568368 -0.568368 0.822774 1012.65 47.6474)" fill="#2856B6"/>
<circle r="5.03777" transform="matrix(-0.822774 -0.568368 -0.568368 0.822774 1012.65 47.6474)" fill="#F5F4F6"/>
<circle r="2.68681" transform="matrix(-0.822774 -0.568368 -0.568368 0.822774 1012.65 47.6474)" fill="#1A88FF"/>
<circle r="5.37362" transform="matrix(-0.822774 -0.568368 -0.568368 0.822774 1000.44 65.3324)" fill="#2856B6"/>
<circle r="5.03777" transform="matrix(-0.822774 -0.568368 -0.568368 0.822774 1000.44 65.3324)" fill="#F5F4F6"/>
<circle r="2.68681" transform="matrix(-0.822774 -0.568368 -0.568368 0.822774 1000.44 65.3325)" fill="#1A88FF"/>
<circle r="5.37362" transform="matrix(-0.822774 -0.568368 -0.568368 0.822774 1024.23 68.7069)" fill="#2856B6"/>
<circle r="5.03777" transform="matrix(-0.822774 -0.568368 -0.568368 0.822774 1024.23 68.7069)" fill="#F5F4F6"/>
<circle r="2.68681" transform="matrix(-0.822774 -0.568368 -0.568368 0.822774 1024.23 68.707)" fill="#1A88FF"/>
<circle r="5.37362" transform="matrix(-0.822774 -0.568368 -0.568368 0.822774 1012.01 86.392)" fill="#2856B6"/>
<circle r="5.03777" transform="matrix(-0.822774 -0.568368 -0.568368 0.822774 1012.01 86.392)" fill="#F5F4F6"/>
<circle r="2.68681" transform="matrix(-0.822774 -0.568368 -0.568368 0.822774 1012.01 86.392)" fill="#1A88FF"/>
<circle r="5.37362" transform="matrix(-0.822774 -0.568368 -0.568368 0.822774 1006.55 56.4901)" fill="#2856B6"/>
<circle r="5.03777" transform="matrix(-0.822774 -0.568368 -0.568368 0.822774 1006.55 56.4901)" fill="#F5F4F6"/>
<circle r="2.68681" transform="matrix(-0.822774 -0.568368 -0.568368 0.822774 1006.55 56.4902)" fill="#1A88FF"/>
<circle r="5.37362" transform="matrix(-0.822774 -0.568368 -0.568368 0.822774 994.328 74.1752)" fill="#2856B6"/>
<circle r="5.03777" transform="matrix(-0.822774 -0.568368 -0.568368 0.822774 994.328 74.1752)" fill="#F5F4F6"/>
<circle r="2.68681" transform="matrix(-0.822774 -0.568368 -0.568368 0.822774 994.328 74.1752)" fill="#1A88FF"/>
<circle r="5.37362" transform="matrix(-0.822774 -0.568368 -0.568368 0.822774 1021.5 53.7558)" fill="#2856B6"/>
<circle r="5.03777" transform="matrix(-0.822774 -0.568368 -0.568368 0.822774 1021.5 53.7558)" fill="#F5F4F6"/>
<circle r="2.68681" transform="matrix(-0.822774 -0.568368 -0.568368 0.822774 1021.5 53.7558)" fill="#1A88FF"/>
<circle r="5.37362" transform="matrix(-0.822774 -0.568368 -0.568368 0.822774 1009.28 71.4408)" fill="#2856B6"/>
<circle r="5.03777" transform="matrix(-0.822774 -0.568368 -0.568368 0.822774 1009.28 71.4408)" fill="#F5F4F6"/>
<circle r="2.68681" transform="matrix(-0.822774 -0.568368 -0.568368 0.822774 1009.28 71.4409)" fill="#1A88FF"/>
<circle r="5.37362" transform="matrix(-0.822774 -0.568368 -0.568368 0.822774 1003.81 41.539)" fill="#2856B6"/>
<circle r="5.03777" transform="matrix(-0.822774 -0.568368 -0.568368 0.822774 1003.81 41.539)" fill="#F5F4F6"/>
<circle r="2.68681" transform="matrix(-0.822774 -0.568368 -0.568368 0.822774 1003.81 41.539)" fill="#1A88FF"/>
<circle r="5.37362" transform="matrix(-0.822774 -0.568368 -0.568368 0.822774 991.594 59.224)" fill="#2856B6"/>
<circle r="5.03777" transform="matrix(-0.822774 -0.568368 -0.568368 0.822774 991.594 59.224)" fill="#F5F4F6"/>
<circle r="2.68681" transform="matrix(-0.822774 -0.568368 -0.568368 0.822774 991.594 59.2241)" fill="#1A88FF"/>
<circle r="5.37362" transform="matrix(-0.822774 -0.568368 -0.568368 0.822774 1015.39 62.5985)" fill="#2856B6"/>
<circle r="5.03777" transform="matrix(-0.822774 -0.568368 -0.568368 0.822774 1015.39 62.5985)" fill="#F5F4F6"/>
<circle r="2.68681" transform="matrix(-0.822774 -0.568368 -0.568368 0.822774 1015.39 62.5986)" fill="#1A88FF"/>
<circle r="5.37362" transform="matrix(-0.822774 -0.568368 -0.568368 0.822774 1003.17 80.2836)" fill="#2856B6"/>
<circle r="5.03777" transform="matrix(-0.822774 -0.568368 -0.568368 0.822774 1003.17 80.2836)" fill="#F5F4F6"/>
<circle r="2.68681" transform="matrix(-0.822774 -0.568368 -0.568368 0.822774 1003.17 80.2836)" fill="#1A88FF"/>
<circle r="5.37362" transform="matrix(-0.822774 -0.568368 -0.568368 0.822774 997.703 50.3817)" fill="#2856B6"/>
<circle r="5.03777" transform="matrix(-0.822774 -0.568368 -0.568368 0.822774 997.703 50.3817)" fill="#F5F4F6"/>
<circle r="2.68681" transform="matrix(-0.822774 -0.568368 -0.568368 0.822774 997.703 50.3818)" fill="#1A88FF"/>
<circle r="5.37362" transform="matrix(-0.822774 -0.568368 -0.568368 0.822774 985.486 68.0668)" fill="#2856B6"/>
<circle r="5.03777" transform="matrix(-0.822774 -0.568368 -0.568368 0.822774 985.486 68.0668)" fill="#F5F4F6"/>
<circle r="2.68681" transform="matrix(-0.822774 -0.568368 -0.568368 0.822774 985.486 68.0668)" fill="#1A88FF"/>
<rect width="3.35851" height="2.68681" rx="1.3434" transform="matrix(-0.822774 -0.568368 -0.568368 0.822774 1028.06 56.6592)" fill="#6A6A75"/>
<rect width="3.35851" height="2.68681" rx="1.3434" transform="matrix(-0.822774 -0.568368 -0.568368 0.822774 1015.85 74.3442)" fill="#6A6A75"/>
<rect width="3.35851" height="2.68681" rx="1.3434" transform="matrix(-0.822774 -0.568368 -0.568368 0.822774 1010.38 44.4424)" fill="#6A6A75"/>
<rect width="3.35851" height="2.68681" rx="1.3434" transform="matrix(-0.822774 -0.568368 -0.568368 0.822774 998.161 62.1274)" fill="#6A6A75"/>
<rect width="3.35851" height="2.68681" rx="1.3434" transform="matrix(-0.822774 -0.568368 -0.568368 0.822774 1019.22 50.5508)" fill="#6A6A75"/>
<rect width="3.35851" height="2.68681" rx="1.3434" transform="matrix(-0.822774 -0.568368 -0.568368 0.822774 1007 68.2358)" fill="#6A6A75"/>
<rect width="3.35851" height="2.68681" rx="1.3434" transform="matrix(-0.822774 -0.568368 -0.568368 0.822774 1021.95 65.5015)" fill="#6A6A75"/>
<rect width="3.35851" height="2.68681" rx="1.3434" transform="matrix(-0.822774 -0.568368 -0.568368 0.822774 1009.74 83.1865)" fill="#6A6A75"/>
<rect width="3.35851" height="2.68681" rx="1.3434" transform="matrix(-0.822774 -0.568368 -0.568368 0.822774 1004.27 53.2847)" fill="#6A6A75"/>
<rect width="3.35851" height="2.68681" rx="1.3434" transform="matrix(-0.822774 -0.568368 -0.568368 0.822774 992.052 70.9697)" fill="#6A6A75"/>
<rect width="3.35851" height="2.68681" rx="1.3434" transform="matrix(-0.822774 -0.568368 -0.568368 0.822774 1013.11 59.3931)" fill="#6A6A75"/>
<rect width="3.35851" height="2.68681" rx="1.3434" transform="matrix(-0.822774 -0.568368 -0.568368 0.822774 1000.9 77.0781)" fill="#6A6A75"/>
<rect width="3.35851" height="2.68681" rx="1.3434" transform="matrix(-0.568368 0.822774 0.822774 0.568368 1027.13 62.1401)" fill="#6A6A75"/>
<rect width="3.35851" height="2.68681" rx="1.3434" transform="matrix(-0.568368 0.822774 0.822774 0.568368 1021.03 70.9829)" fill="#6A6A75"/>
<rect width="3.35851" height="2.68681" rx="1.3434" transform="matrix(-0.568368 0.822774 0.822774 0.568368 1014.92 79.8252)" fill="#6A6A75"/>
<rect width="3.35851" height="2.68681" rx="1.3434" transform="matrix(-0.568368 0.822774 0.822774 0.568368 1009.45 49.9233)" fill="#6A6A75"/>
<rect width="3.35851" height="2.68681" rx="1.3434" transform="matrix(-0.568368 0.822774 0.822774 0.568368 1003.34 58.7661)" fill="#6A6A75"/>
<rect width="3.35851" height="2.68681" rx="1.3434" transform="matrix(-0.568368 0.822774 0.822774 0.568368 997.232 67.6084)" fill="#6A6A75"/>
<rect width="3.35851" height="2.68681" rx="1.3434" transform="matrix(-0.568368 0.822774 0.822774 0.568368 1018.29 56.0317)" fill="#6A6A75"/>
<rect width="3.35851" height="2.68681" rx="1.3434" transform="matrix(-0.568368 0.822774 0.822774 0.568368 1012.18 64.8745)" fill="#6A6A75"/>
<rect width="3.35851" height="2.68681" rx="1.3434" transform="matrix(-0.568368 0.822774 0.822774 0.568368 1006.07 73.7168)" fill="#6A6A75"/>
<rect width="3.35851" height="2.68681" rx="1.3434" transform="matrix(-0.568368 0.822774 0.822774 0.568368 1000.61 43.8149)" fill="#6A6A75"/>
<rect width="3.35851" height="2.68681" rx="1.3434" transform="matrix(-0.568368 0.822774 0.822774 0.568368 994.498 52.6577)" fill="#6A6A75"/>
<rect width="3.35851" height="2.68681" rx="1.3434" transform="matrix(-0.568368 0.822774 0.822774 0.568368 988.389 61.5)" fill="#6A6A75"/>
</svg>
