<svg xmlns="http://www.w3.org/2000/svg" viewBox="0 0 224.16 54.97"><g id="Layer_2" data-name="Layer 2"><g id="Layer_1-2" data-name="Layer 1"><path d="M69.52,47.09a.55.55,0,0,0,.55.55H86.92c9.84,0,14.67-5,14.67-11.71,0-6.51-4.62-10.33-9.19-10.56V25c4.19-1,7.51-3.92,7.51-9.15C99.91,9.4,95.29,4.66,86,4.66H70.07a.55.55,0,0,0-.55.55Zm7.79-6.51V29.1a.55.55,0,0,1,.55-.56h8c4.81,0,7.79,2.94,7.79,6.78,0,3.42-2.35,5.82-8,5.82H77.86A.55.55,0,0,1,77.31,40.58Zm0-18.2V11.64a.55.55,0,0,1,.55-.56h7.32c4.57,0,6.94,2.41,6.94,5.73,0,3.78-3.06,6.13-7.11,6.13H77.86A.55.55,0,0,1,77.31,22.38Zm27.05,25.26h6.49a.55.55,0,0,0,.55-.55V16a.56.56,0,0,0-.55-.56h-6.49a.55.55,0,0,0-.55.56V47.09A.55.55,0,0,0,104.36,47.64Zm3.27-36.81A4.26,4.26,0,0,0,112,6.72a4.4,4.4,0,0,0-8.79,0A4.27,4.27,0,0,0,107.63,10.83Zm21.43,37.44c9.44,0,15.44-6.65,15.44-16.62S138.5,15,129.06,15s-15.45,6.68-15.45,16.67S119.61,48.27,129.06,48.27Zm0-6.08c-5.23,0-7.79-4.66-7.79-10.56S123.87,21,129.1,21s7.7,4.72,7.7,10.62S134.24,42.19,129.1,42.19Zm18.18,5.45h6.49a.56.56,0,0,0,.56-.55V28c0-4,2.64-6.65,5.92-6.65a5.14,5.14,0,0,1,5.41,5.47V47.09a.56.56,0,0,0,.56.55h6.34a.55.55,0,0,0,.55-.55V27.54c0-3.64,2.16-6.15,5.84-6.15,3.06,0,5.5,1.8,5.5,5.79V47.09a.55.55,0,0,0,.55.55h6.51a.55.55,0,0,0,.55-.55V26c0-7.2-4.15-11-10.07-11-4.68,0-8.25,2.31-9.68,5.9H172c-1.24-3.65-4.37-5.9-8.71-5.9s-7.56,2.23-8.9,5.9H154V16a.56.56,0,0,0-.55-.56h-6.16a.56.56,0,0,0-.55.56V47.09A.55.55,0,0,0,147.28,47.64Zm62.54.63c7.23,0,12.28-3.4,13.85-8.64a.56.56,0,0,0-.47-.71l-6-.68a.58.58,0,0,0-.57.34c-1.11,2.48-3.54,3.77-6.66,3.77-4.74,0-7.93-3-8.21-8.16a.56.56,0,0,1,.56-.59H223.6a.56.56,0,0,0,.56-.55V31.27C224.16,20,217.36,15,209.42,15c-9.23,0-15.25,6.78-15.25,16.73C194.17,41.83,200.11,48.27,209.82,48.27Zm-7.49-19.79a.55.55,0,0,1-.55-.61,7.7,7.7,0,0,1,7.75-7,7.12,7.12,0,0,1,7.32,7,.56.56,0,0,1-.56.58Z" style="fill:#fcfcfc"/><path d="M30.82,8.84a.54.54,0,0,1-.62.46,18.2,18.2,0,0,0-2.45-.14,19.26,19.26,0,0,0-2.41.2.55.55,0,0,1-.64-.44L23.25,1a.56.56,0,0,1,.46-.65A26.93,26.93,0,0,1,27.62,0a26.13,26.13,0,0,1,4,.24.57.57,0,0,1,.48.65ZM19,11,15,4a.57.57,0,0,0-.78-.21A26.65,26.65,0,0,0,10.9,6.19,20.39,20.39,0,0,0,7.82,9.46a.55.55,0,0,0,.13.79l6.53,4.69a.56.56,0,0,0,.77-.12,10.5,10.5,0,0,1,1.57-1.63,16.1,16.1,0,0,1,2-1.43A.56.56,0,0,0,19,11Zm-7.07,9.07L4.37,17.27a.57.57,0,0,0-.72.34c-.24.65-.46,1.3-.66,1.87l-.15.44c-.17.49-.33.9-.51,1.41-.13.33-.26.7-.43,1.16l8.61,3.14c.11-.33.23-.65.35-1,.22-.58.44-1.17.64-1.74l.16-.48c.19-.55.38-1.1.58-1.65A.54.54,0,0,0,11.91,20.08ZM8.63,31.2.58,31a.57.57,0,0,0-.58.56A16.62,16.62,0,0,0,3.69,42a.55.55,0,0,0,.8.07l6.12-5.22a.55.55,0,0,0,.07-.77,7.49,7.49,0,0,1-1.1-2,7.39,7.39,0,0,1-.41-2.3A.57.57,0,0,0,8.63,31.2Zm6.91,8.85-4.79,7.81.88.53c.52.32.94.57,1.39.86l.63.42,1.26.81a.55.55,0,0,0,.77-.17L20,43.49a.54.54,0,0,0-.17-.76l-1-.68L18,41.56c-.56-.36-1.14-.72-1.72-1.07Zm9.4,5.86-2.27,7.72a.55.55,0,0,0,.39.7,18.9,18.9,0,0,0,4.53.64,22.51,22.51,0,0,0,4.15-.33.57.57,0,0,0,.45-.67l-1.6-7.89a.55.55,0,0,0-.64-.43,12.39,12.39,0,0,1-2.2.16,9.42,9.42,0,0,1-2.13-.28A.57.57,0,0,0,24.94,45.91ZM35.82,44,40,50.82a.57.57,0,0,0,.79.18,27.78,27.78,0,0,0,2.79-2,20.06,20.06,0,0,0,2.83-2.86.57.57,0,0,0-.09-.8L40,40.37a.55.55,0,0,0-.76.09,11.61,11.61,0,0,1-1.45,1.44A20.2,20.2,0,0,1,36,43.21.57.57,0,0,0,35.82,44Zm6.77-8.22L50,38.93a.56.56,0,0,0,.74-.3c.32-.76.61-1.5.86-2.15l.47-1.17v0l.35-.86a.56.56,0,0,0-.32-.73L44.6,30.76a.56.56,0,0,0-.72.31l-.33.83c-.17.41-.33.82-.49,1.23-.25.63-.5,1.27-.76,1.89A.56.56,0,0,0,42.59,35.75Zm3.49-10.48,8,.73a.56.56,0,0,0,.62-.51,18.52,18.52,0,0,0-.33-4.85,23.35,23.35,0,0,0-1.28-4.18.56.56,0,0,0-.75-.29L45,19.44a.53.53,0,0,0-.28.71,14.09,14.09,0,0,1,.69,2.32,9.2,9.2,0,0,1,.17,2.21A.56.56,0,0,0,46.08,25.27ZM41.54,14.43,47.28,8.8a.57.57,0,0,0,0-.81,31.26,31.26,0,0,0-2.85-2.45,29,29,0,0,0-3.27-2.12.57.57,0,0,0-.77.24l-3.75,7.12a.55.55,0,0,0,.23.74,18.69,18.69,0,0,1,3.88,2.91A.56.56,0,0,0,41.54,14.43Z" style="fill:#dfefff;fill-rule:evenodd"/></g></g></svg>